# xmcd
#
# Track frame offsets:
#	150
#	13099
#	24577
#	39945
#	50694
#	65147
#	76200
#	93777
#	106149
#	121204
#	132015
#	143277
#
# Disc length: 2038 seconds
#
# Revision: 1
# Processed by: cddbd v1.5.2PL0 Copyright (c) Steve Scherf et al.
# Submitted via: audiograbber 1.83.01
#
DISCID=8e07f40c
DTITLE=KENNY ROGERS - LEGENDS IN MUSIC
DYEAR=2008
DGENRE=
TTITLE0=RUBEN JAMES
TTITLE1=POEM FOR LITTLE LADY
TTITLE2=MY WASHINGTON WOMAN
TTITLE3=SHE EVEN WOKE ME UP TO SAY GOOD BYE
TTITLE4=LOSER
TTITLE5=HOMEMADE LIES
TTITLE6=SOMETHING4S BURNING
TTITLE7=ELVIRA
TTITLE8=JUST DROPED IN
TTITLE9=TICKET TO NOWHERE
TTITLE10=IF WISHES WHERE HORSES
TTITLE11=WHERE DOES ROSIE GOES
EXTD=
EXTT0=
EXTT1=
EXTT2=
EXTT3=
EXTT4=
EXTT5=
EXTT6=
EXTT7=
EXTT8=
EXTT9=
EXTT10=
EXTT11=
PLAYORDER=
